<?xml version="1.0" standalone="no"?>
<!DOCTYPE svg PUBLIC "-//W3C//DTD SVG 20010904//EN"
 "http://www.w3.org/TR/2001/REC-SVG-20010904/DTD/svg10.dtd">
<svg version="1.0" xmlns="http://www.w3.org/2000/svg"
 width="1025.000000pt" height="550.000000pt" viewBox="0 0 1025.000000 550.000000"
 preserveAspectRatio="xMidYMid meet">

<g transform="translate(0.000000,550.000000) scale(0.100000,-0.100000)"
fill="#000000" stroke="none">
<path d="M2020 4400 c-564 -99 -1042 -182 -1062 -185 l-38 -7 0 -1459 c0 -802
2 -1459 5 -1459 4 0 2009 -346 2123 -366 l32 -6 0 206 0 206 695 0 c579 0 701
2 730 14 70 29 65 -72 65 1426 0 1256 -1 1354 -17 1381 -36 61 -14 59 -777 59
l-696 0 0 185 c0 170 -1 185 -17 184 -10 0 -479 -81 -1043 -179z m2430 -1630
l0 -1310 -685 0 -685 0 0 125 0 125 165 0 165 0 0 145 0 145 -165 0 -166 0 3
83 3 82 163 3 162 2 0 145 0 145 -165 0 -165 0 0 80 0 80 163 2 162 3 0 145 0
145 -162 3 -163 2 0 80 0 80 163 2 162 3 0 145 0 145 -162 3 -163 2 0 80 0 80
165 0 165 0 0 145 0 145 -162 2 -163 3 -3 123 -3 122 686 0 685 0 0 -1310z
m-2010 687 c0 -2 -74 -155 -165 -340 -91 -184 -165 -340 -165 -346 0 -6 77
-164 170 -351 94 -187 170 -342 170 -346 0 -3 -30 -3 -67 0 -38 3 -107 8 -154
12 l-87 6 -96 228 c-53 125 -99 243 -103 261 l-6 33 -13 -44 c-7 -23 -52 -135
-101 -248 l-88 -205 -134 7 c-74 3 -136 8 -139 10 -2 3 68 146 156 319 l160
313 -144 312 c-79 172 -144 317 -144 322 0 6 22 10 48 10 27 0 89 3 138 6 l90
7 78 -202 c43 -111 84 -221 91 -244 l13 -42 12 45 c13 49 176 438 192 457 5 7
41 14 81 16 124 6 207 7 207 4z"/>
<path d="M3570 3685 l0 -145 295 0 295 0 0 145 0 145 -295 0 -295 0 0 -145z"/>
<path d="M3574 3367 c-2 -7 -3 -74 -2 -148 l3 -134 290 0 290 0 0 145 0 145
-288 3 c-230 2 -289 0 -293 -11z"/>
<path d="M3574 2907 c-2 -7 -3 -74 -2 -148 l3 -134 290 0 290 0 0 145 0 145
-288 3 c-230 2 -289 0 -293 -11z"/>
<path d="M3570 2315 l0 -145 295 0 295 0 0 145 0 145 -295 0 -295 0 0 -145z"/>
<path d="M3570 1855 l0 -145 295 0 295 0 0 145 0 145 -295 0 -295 0 0 -145z"/>
<path d="M9150 2780 l0 -681 73 3 72 3 3 678 2 677 -75 0 -75 0 0 -680z"/>
<path d="M5812 2748 l3 -643 338 -3 337 -2 0 70 0 70 -265 0 -265 0 0 225 0
225 235 0 235 0 0 70 0 70 -235 0 -235 0 0 210 0 210 253 2 252 3 3 68 3 67
-331 0 -330 0 2 -642z"/>
<path d="M7729 3025 c-76 -21 -140 -57 -194 -110 -93 -94 -137 -211 -137 -372
-1 -255 146 -428 388 -459 63 -8 182 10 245 38 l49 20 0 69 0 69 -62 -32 c-59
-31 -70 -33 -163 -33 -114 0 -153 15 -216 82 -72 75 -84 112 -84 258 0 122 2
133 27 182 40 76 82 118 146 150 49 24 69 28 142 28 76 0 93 -4 148 -31 l63
-31 -3 76 -3 75 -55 18 c-66 20 -223 22 -291 3z"/>
<path d="M8473 3021 c-136 -49 -234 -166 -273 -326 -15 -64 -15 -226 1 -290
32 -130 107 -234 203 -279 135 -64 359 -53 484 24 31 19 32 22 32 85 0 36 -2
65 -5 65 -2 0 -25 -13 -50 -29 -109 -69 -282 -81 -383 -26 -85 46 -142 145
-142 247 l0 38 321 0 322 0 -5 113 c-9 207 -85 328 -241 381 -66 22 -197 21
-264 -3z m244 -130 c66 -33 113 -118 113 -202 l0 -39 -245 0 c-276 0 -258 -7
-225 83 33 87 97 151 180 178 40 13 133 3 177 -20z"/>
<path d="M6707 2793 c80 -125 146 -233 146 -238 0 -6 -68 -109 -151 -229 -84
-120 -152 -220 -152 -222 0 -2 36 -4 80 -4 l80 0 44 68 c23 37 76 121 116 186
54 87 76 116 82 105 5 -8 55 -90 111 -184 l103 -170 83 -3 c70 -2 83 -1 78 12
-3 8 -69 109 -146 225 -78 116 -141 215 -141 221 0 6 68 112 150 236 l151 225
-83 -3 -83 -3 -110 -187 c-60 -103 -112 -188 -115 -188 -3 0 -52 85 -110 188
l-105 187 -87 3 -87 3 146 -228z"/>
</g>
</svg>
