<?xml version="1.0" standalone="no"?>
<!DOCTYPE svg PUBLIC "-//W3C//DTD SVG 20010904//EN"
 "http://www.w3.org/TR/2001/REC-SVG-20010904/DTD/svg10.dtd">
<svg version="1.0" xmlns="http://www.w3.org/2000/svg"
 width="4096.000000pt" height="1648.000000pt" viewBox="0 0 4096.000000 1648.000000"
 preserveAspectRatio="xMidYMid meet">

<g transform="translate(0.000000,1648.000000) scale(0.100000,-0.100000)"
fill="#000000" stroke="none">
<path d="M0 15895 l0 -585 3985 0 3985 0 0 585 0 585 -3985 0 -3985 0 0 -585z"/>
<path d="M9010 15895 l0 -585 5733 0 5732 1 -45 40 c-25 22 -103 87 -174 145
-598 483 -1303 796 -2091 928 -354 60 11 56 -4771 56 l-4384 0 0 -585z"/>
<path d="M22782 15899 c3 -319 8 -582 10 -585 3 -2 1519 -3 3369 -2 l3365 3
-206 582 -205 583 -3169 0 -3169 0 5 -581z"/>
<path d="M34547 16438 c-44 -127 -399 -1114 -403 -1120 -3 -5 1530 -8 3405 -8
l3411 0 0 585 0 585 -3199 0 -3199 0 -15 -42z"/>
<path d="M0 13695 l0 -585 3985 0 3985 0 0 585 0 585 -3985 0 -3985 0 0 -585z"/>
<path d="M9010 13695 l0 -585 6345 0 6345 0 0 73 c0 221 -64 450 -253 912
l-74 180 -6181 3 -6182 2 0 -585z"/>
<path d="M22787 14273 c-4 -3 -7 -267 -7 -585 l0 -578 3766 0 c3419 0 3766 1
3760 16 -4 11 -274 775 -398 1127 l-10 27 -3552 0 c-1954 0 -3556 -3 -3559 -7z"/>
<path d="M33757 14228 c-46 -132 -377 -1067 -386 -1090 l-11 -28 3800 0 3800
0 0 580 0 580 -3594 0 -3594 0 -15 -42z"/>
<path d="M11317 12073 c-4 -3 -7 -267 -7 -585 l0 -578 1710 0 1710 0 0 585 0
585 -1703 0 c-937 0 -1707 -3 -1710 -7z"/>
<path d="M18160 11495 l0 -585 1739 0 1738 0 32 108 c72 246 119 567 128 875
l6 187 -1822 0 -1821 0 0 -585z"/>
<path d="M25030 11495 l0 -585 3030 0 c1667 0 3030 2 3030 4 0 3 -92 264 -205
581 -113 317 -205 579 -205 581 0 2 -1271 4 -2825 4 l-2825 0 0 -585z"/>
<path d="M32992 12053 c-196 -551 -402 -1132 -402 -1137 0 -3 1377 -6 3060 -6
l3060 0 -2 583 -3 582 -2852 3 -2851 2 -10 -27z"/>
<path d="M2220 11490 l0 -580 1715 0 1715 0 0 580 0 580 -1715 0 -1715 0 0
-580z"/>
<path d="M2222 9338 l3 -583 1713 -3 1712 -2 0 585 0 585 -1715 0 -1715 0 2
-582z"/>
<path d="M11312 9338 l3 -583 4421 -3 4422 -2 83 74 c297 261 626 654 833 994
31 51 56 95 56 97 0 3 -2210 5 -4910 5 l-4910 0 2 -582z"/>
<path d="M25030 9335 l0 -585 1685 0 1685 0 2 436 3 436 151 -434 151 -433
3165 -3 3165 -2 107 302 c58 167 128 366 155 443 l50 140 0 -442 1 -443 1675
0 1675 0 0 585 0 585 -3233 0 -3234 0 -188 -532 c-103 -293 -190 -536 -194
-540 -3 -4 -82 201 -175 455 -93 254 -182 497 -198 540 l-30 77 -3209 0 -3209
0 0 -585z"/>
<path d="M2230 7135 l0 -585 1708 2 1707 3 3 583 2 582 -1710 0 -1710 0 0
-585z"/>
<path d="M11312 7138 l3 -583 4938 -3 c2715 -1 4937 1 4937 5 0 12 -170 242
-263 358 -201 250 -508 572 -698 733 l-86 72 -4417 0 -4416 0 2 -582z"/>
<path d="M25030 7135 l0 -585 1683 2 1682 3 3 583 2 582 -1685 0 -1685 0 0
-585z"/>
<path d="M29119 7583 c59 -165 356 -991 366 -1016 7 -16 128 -17 2394 -15
l2386 3 24 60 c13 33 101 287 196 565 95 278 176 513 180 523 7 16 -130 17
-2794 17 l-2800 0 48 -137z"/>
<path d="M35352 7138 l3 -583 1673 -3 1672 -2 0 585 0 585 -1675 0 -1675 0 2
-582z"/>
<path d="M2230 4940 l0 -580 1710 0 1710 0 0 580 0 580 -1710 0 -1710 0 0
-580z"/>
<path d="M11310 4940 l0 -580 1734 0 1733 0 6 83 c9 106 9 396 0 775 l-6 302
-1734 0 -1733 0 0 -580z"/>
<path d="M18220 4935 l0 -585 1841 0 1840 0 -5 53 c-4 28 -13 133 -22 232 -19
232 -39 372 -71 515 -27 124 -74 273 -104 333 l-19 37 -1730 0 -1730 0 0 -585z"/>
<path d="M25030 4940 l0 -580 1685 0 1685 0 0 580 0 580 -1685 0 -1685 0 0
-580z"/>
<path d="M29871 5433 c17 -49 92 -257 166 -463 74 -206 153 -428 176 -492 l42
-117 60 -6 c33 -3 759 -5 1614 -3 l1553 3 24 65 c12 36 92 261 177 500 85 239
168 472 185 518 l31 82 -2029 0 -2029 0 30 -87z"/>
<path d="M35350 4940 l0 -580 1675 0 1675 0 0 580 0 580 -1675 0 -1675 0 0
-580z"/>
<path d="M0 2785 l0 -585 3983 2 3982 3 3 583 2 582 -3985 0 -3985 0 0 -585z"/>
<path d="M9010 2785 l0 -585 6150 0 6150 0 65 87 c138 186 235 437 324 836 28
125 51 232 51 237 0 6 -2340 10 -6370 10 l-6370 0 0 -585z"/>
<path d="M22782 2788 l3 -583 2805 0 2805 0 3 583 2 582 -2810 0 -2810 0 2
-582z"/>
<path d="M30611 3358 c0 -7 91 -269 202 -583 l202 -570 849 -3 c468 -1 853 1
858 6 6 6 398 1146 398 1158 0 2 -565 4 -1255 4 -998 0 -1255 -3 -1254 -12z"/>
<path d="M35350 2785 l0 -585 2805 0 2805 0 0 585 0 585 -2805 0 -2805 0 0
-585z"/>
<path d="M0 585 l0 -585 3980 2 3981 3 2 580 2 580 -3982 3 -3983 2 0 -585z"/>
<path d="M9010 585 l0 -585 4418 3 c4842 3 4458 -2 4832 58 806 128 1556 470
2145 980 55 47 109 96 119 108 l19 21 -5766 0 -5767 0 0 -585z"/>
<path d="M22780 585 l0 -585 2810 0 2810 0 0 585 0 585 -2810 0 -2810 0 0
-585z"/>
<path d="M31400 1163 c0 -5 88 -268 197 -585 l198 -578 76 0 c64 0 78 3 84 18
3 9 94 265 200 567 107 303 197 558 201 568 6 16 -25 17 -475 17 -265 0 -481
-3 -481 -7z"/>
<path d="M35350 585 l0 -585 2805 0 2805 0 0 585 0 585 -2805 0 -2805 0 0
-585z"/>
</g>
</svg>
