<svg version="1.1" id="Layer_1" xmlns="http://www.w3.org/2000/svg" xmlns:xlink="http://www.w3.org/1999/xlink" x="0px" y="0px"
	 width="100%" viewBox="0 0 1920 1080" enable-background="new 0 0 1920 1080" xml:space="preserve">
<path fill="#002A16" opacity="1.000000" stroke="none" 
	d="
M1784.000000,1081.000000 
	C1189.333496,1081.000000 595.166870,1081.000000 1.000239,1081.000000 
	C1.000160,721.000183 1.000160,361.000336 1.000080,1.000384 
	C640.999695,1.000256 1280.999390,1.000256 1920.999268,1.000128 
	C1920.999512,360.999634 1920.999512,720.999268 1920.999756,1080.999512 
	C1875.500000,1081.000000 1830.000000,1081.000000 1784.000000,1081.000000 
M537.499451,659.304749 
	C548.100159,659.304749 558.700806,659.304749 569.739502,659.304749 
	C569.739502,642.413391 569.739502,626.197693 569.739502,609.172852 
	C572.890686,612.098938 575.213318,614.671570 577.933167,616.715637 
	C600.219360,633.465149 624.786926,634.576477 649.884521,625.367371 
	C682.209412,613.506226 703.403503,581.269043 704.073669,545.166687 
	C704.810852,505.453400 685.653137,472.620483 652.105469,458.938599 
	C628.337036,449.245026 604.396484,448.508759 582.433533,464.680573 
	C577.851379,468.054504 574.004211,472.426758 569.565552,476.575195 
	C567.239441,469.825775 564.999817,463.327454 562.843018,457.069489 
	C545.375977,457.069489 528.437317,457.069489 511.317932,457.069489 
	C511.317932,524.520691 511.317932,591.731018 511.317932,659.304688 
	C519.875183,659.304688 528.187317,659.304688 537.499451,659.304749 
M1207.733643,519.188171 
	C1194.722046,554.868774 1181.710327,590.549316 1168.441528,626.935364 
	C1188.938965,626.935364 1208.250610,627.007629 1227.558472,626.765442 
	C1228.784302,626.750122 1230.550171,624.493652 1231.099731,622.938782 
	C1235.923950,609.289429 1240.598511,595.585571 1245.143677,581.840454 
	C1246.120117,578.887573 1247.484375,577.669495 1250.770508,577.687195 
	C1276.433472,577.825317 1302.097900,577.811768 1327.761108,577.703491 
	C1330.951416,577.690002 1332.442383,578.732910 1333.451660,581.811584 
	C1337.961914,595.568115 1342.833496,609.206238 1347.347534,622.961670 
	C1348.360718,626.048645 1349.879395,627.044922 1353.060913,627.017822 
	C1369.557739,626.876953 1386.056519,626.953125 1402.554565,626.953613 
	C1405.148682,626.953735 1407.742676,626.953674 1410.870361,626.953674 
	C1410.283813,625.163635 1409.958496,624.071533 1409.570923,623.002014 
	C1385.866577,557.606079 1362.127930,492.222565 1338.531494,426.787720 
	C1337.301147,423.375763 1335.428955,422.767822 1332.236328,422.778564 
	C1303.906616,422.873993 1275.576172,422.890717 1247.246704,422.759552 
	C1243.921997,422.744141 1242.241943,423.606018 1241.068726,426.884003 
	C1230.133057,457.439301 1219.020142,487.931091 1207.733643,519.188171 
M927.453491,465.058075 
	C925.235229,463.924927 923.073242,462.661163 920.790161,461.678650 
	C895.697449,450.879913 869.773804,449.469910 843.583130,456.210327 
	C823.880310,461.281036 807.804382,472.074280 797.583923,490.289337 
	C793.085205,498.307037 790.562317,506.921631 790.151489,516.353333 
	C808.935364,516.353333 827.231934,516.353333 845.794556,516.353333 
	C847.673157,508.838318 852.523193,503.864410 859.826538,501.514221 
	C867.752502,498.963715 875.856018,498.647766 883.918884,500.961975 
	C896.412476,504.547852 902.359558,515.136292 899.163696,528.163147 
	C885.886292,528.163147 872.560120,528.036194 859.237427,528.196289 
	C843.695618,528.383057 828.182190,529.430237 813.886902,536.235107 
	C795.864380,544.814209 785.512695,558.981079 785.047852,579.341187 
	C784.569153,600.308655 794.238159,615.364441 813.012939,624.349121 
	C827.248657,631.161621 842.588806,632.057983 857.981506,630.679626 
	C875.769409,629.086792 890.386108,621.335754 900.768494,606.398010 
	C901.271240,605.674561 901.944214,605.069519 902.705750,604.222778 
	C905.277283,612.001770 907.722656,619.399109 910.108826,626.617432 
	C926.332214,626.617432 942.241760,626.617432 958.267822,626.617432 
	C958.368530,625.669922 958.497498,625.021851 958.497681,624.373718 
	C958.508057,589.710632 958.669495,555.046509 958.452209,520.384827 
	C958.303650,496.691772 948.762146,477.901764 927.453491,465.058075 
M971.997253,479.500031 
	C971.997253,528.563904 971.997253,577.627747 971.997253,626.602051 
	C991.901611,626.602051 1011.012512,626.602051 1030.701172,626.602051 
	C1030.701172,624.592102 1030.697266,622.809509 1030.701782,621.026978 
	C1030.776367,592.033203 1030.340576,563.026306 1031.086792,534.049805 
	C1031.697632,510.334259 1052.142578,496.260345 1074.536011,503.062866 
	C1081.257446,505.104645 1086.824463,508.984802 1088.991699,515.726929 
	C1091.151855,522.447449 1093.164062,529.553711 1093.297852,536.528137 
	C1093.837891,564.679016 1093.627563,592.844238 1093.693237,621.004211 
	C1093.697632,622.918030 1093.693848,624.831848 1093.693848,626.606812 
	C1113.490479,626.606812 1132.573608,626.606812 1151.930908,626.606812 
	C1151.930908,624.474365 1151.930786,622.661377 1151.930908,620.848389 
	C1151.931152,592.519226 1152.074219,564.188965 1151.844604,535.861694 
	C1151.775879,527.396729 1151.266357,518.843262 1149.922974,510.497101 
	C1145.020752,480.041656 1128.543091,455.681152 1091.606323,452.459015 
	C1071.012207,450.662506 1052.616455,455.717896 1037.773804,470.804047 
	C1034.322021,474.312531 1031.364624,478.307373 1027.860352,482.456787 
	C1026.190918,473.527008 1024.586914,464.947784 1023.037231,456.658478 
	C1005.667419,456.658478 988.927246,456.658478 971.997253,456.658478 
	C971.997253,464.180908 971.997253,471.340485 971.997253,479.500031 
M718.800415,626.933350 
	C737.077454,626.933350 755.354492,626.933350 773.815186,626.933350 
	C773.815186,558.668152 773.815186,490.891449 773.815186,423.027710 
	C754.332642,423.027710 734.927063,423.027710 715.590454,423.027710 
	C715.453857,423.687439 715.327637,424.012634 715.327515,424.337830 
	C715.310852,490.663666 715.302673,556.989502 715.299255,623.315369 
	C715.299194,624.146729 715.063293,625.209351 715.477905,625.749084 
	C715.963196,626.380981 717.041626,626.557434 718.800415,626.933350 
z"/>
<path fill="#FEFEFE" opacity="1.000000" stroke="none" 
	d="
M536.999390,659.304688 
	C528.187317,659.304688 519.875183,659.304688 511.317932,659.304688 
	C511.317932,591.731018 511.317932,524.520691 511.317932,457.069489 
	C528.437317,457.069489 545.375977,457.069489 562.843018,457.069489 
	C564.999817,463.327454 567.239441,469.825775 569.565552,476.575195 
	C574.004211,472.426758 577.851379,468.054504 582.433533,464.680573 
	C604.396484,448.508759 628.337036,449.245026 652.105469,458.938599 
	C685.653137,472.620483 704.810852,505.453400 704.073669,545.166687 
	C703.403503,581.269043 682.209412,613.506226 649.884521,625.367371 
	C624.786926,634.576477 600.219360,633.465149 577.933167,616.715637 
	C575.213318,614.671570 572.890686,612.098938 569.739502,609.172852 
	C569.739502,626.197693 569.739502,642.413391 569.739502,659.304749 
	C558.700806,659.304749 548.100159,659.304749 536.999390,659.304688 
M644.700378,540.689636 
	C644.545105,539.368225 644.434814,538.039795 644.227722,536.726562 
	C641.738770,520.945740 632.971619,509.958771 617.762695,505.467133 
	C602.047363,500.825928 587.460205,504.040253 576.401245,516.804321 
	C565.808777,529.029968 564.411194,543.307312 570.571167,557.944824 
	C577.617371,574.688110 596.053833,583.017029 615.618347,578.906067 
	C629.407959,576.008606 644.900757,563.749573 644.700378,540.689636 
z"/>
<path fill="#01A959" opacity="1.000000" stroke="none" 
	d="
M1207.846191,518.814758 
	C1219.020142,487.931091 1230.133057,457.439301 1241.068726,426.884003 
	C1242.241943,423.606018 1243.921997,422.744141 1247.246704,422.759552 
	C1275.576172,422.890717 1303.906616,422.873993 1332.236328,422.778564 
	C1335.428955,422.767822 1337.301147,423.375763 1338.531494,426.787720 
	C1362.127930,492.222565 1385.866577,557.606079 1409.570923,623.002014 
	C1409.958496,624.071533 1410.283813,625.163635 1410.870361,626.953674 
	C1407.742676,626.953674 1405.148682,626.953735 1402.554565,626.953613 
	C1386.056519,626.953125 1369.557739,626.876953 1353.060913,627.017822 
	C1349.879395,627.044922 1348.360718,626.048645 1347.347534,622.961670 
	C1342.833496,609.206238 1337.961914,595.568115 1333.451660,581.811584 
	C1332.442383,578.732910 1330.951416,577.690002 1327.761108,577.703491 
	C1302.097900,577.811768 1276.433472,577.825317 1250.770508,577.687195 
	C1247.484375,577.669495 1246.120117,578.887573 1245.143677,581.840454 
	C1240.598511,595.585571 1235.923950,609.289429 1231.099731,622.938782 
	C1230.550171,624.493652 1228.784302,626.750122 1227.558472,626.765442 
	C1208.250610,627.007629 1188.938965,626.935364 1168.441528,626.935364 
	C1181.710327,590.549316 1194.722046,554.868774 1207.846191,518.814758 
M1290.382568,454.572693 
	C1290.123413,453.987579 1289.864258,453.402466 1289.225342,451.959930 
	C1280.207520,478.916290 1271.441895,505.118896 1262.564331,531.656311 
	C1280.869629,531.656311 1298.353638,531.656311 1315.872070,531.656311 
	C1315.926270,530.720581 1316.106934,530.179688 1315.961182,529.749390 
	C1307.545776,504.895874 1299.103149,480.051544 1290.382568,454.572693 
z"/>
<path fill="#FDFEFD" opacity="1.000000" stroke="none" 
	d="
M927.779114,465.222107 
	C948.762146,477.901764 958.303650,496.691772 958.452209,520.384827 
	C958.669495,555.046509 958.508057,589.710632 958.497681,624.373718 
	C958.497498,625.021851 958.368530,625.669922 958.267822,626.617432 
	C942.241760,626.617432 926.332214,626.617432 910.108826,626.617432 
	C907.722656,619.399109 905.277283,612.001770 902.705750,604.222778 
	C901.944214,605.069519 901.271240,605.674561 900.768494,606.398010 
	C890.386108,621.335754 875.769409,629.086792 857.981506,630.679626 
	C842.588806,632.057983 827.248657,631.161621 813.012939,624.349121 
	C794.238159,615.364441 784.569153,600.308655 785.047852,579.341187 
	C785.512695,558.981079 795.864380,544.814209 813.886902,536.235107 
	C828.182190,529.430237 843.695618,528.383057 859.237427,528.196289 
	C872.560120,528.036194 885.886292,528.163147 899.163696,528.163147 
	C902.359558,515.136292 896.412476,504.547852 883.918884,500.961975 
	C875.856018,498.647766 867.752502,498.963715 859.826538,501.514221 
	C852.523193,503.864410 847.673157,508.838318 845.794556,516.353333 
	C827.231934,516.353333 808.935364,516.353333 790.151489,516.353333 
	C790.562317,506.921631 793.085205,498.307037 797.583923,490.289337 
	C807.804382,472.074280 823.880310,461.281036 843.583130,456.210327 
	C869.773804,449.469910 895.697449,450.879913 920.790161,461.678650 
	C923.073242,462.661163 925.235229,463.924927 927.779114,465.222107 
M889.405090,561.065063 
	C881.414734,561.065308 873.403137,560.719604 865.442627,561.207092 
	C861.254211,561.463562 856.879761,562.593079 853.086487,564.382385 
	C848.528320,566.532593 846.567383,570.905029 847.064392,576.030884 
	C847.532837,580.861877 850.364197,584.246155 854.899475,585.313232 
	C859.514954,586.399170 864.405273,587.119568 869.112610,586.860657 
	C882.895020,586.102844 895.211060,574.021057 895.851074,561.065125 
	C894.017883,561.065125 892.194336,561.065125 889.405090,561.065063 
z"/>
<path fill="#FEFEFE" opacity="1.000000" stroke="none" 
	d="
M971.997253,479.000061 
	C971.997253,471.340485 971.997253,464.180908 971.997253,456.658478 
	C988.927246,456.658478 1005.667419,456.658478 1023.037231,456.658478 
	C1024.586914,464.947784 1026.190918,473.527008 1027.860352,482.456787 
	C1031.364624,478.307373 1034.322021,474.312531 1037.773804,470.804047 
	C1052.616455,455.717896 1071.012207,450.662506 1091.606323,452.459015 
	C1128.543091,455.681152 1145.020752,480.041656 1149.922974,510.497101 
	C1151.266357,518.843262 1151.775879,527.396729 1151.844604,535.861694 
	C1152.074219,564.188965 1151.931152,592.519226 1151.930908,620.848389 
	C1151.930786,622.661377 1151.930908,624.474365 1151.930908,626.606812 
	C1132.573608,626.606812 1113.490479,626.606812 1093.693848,626.606812 
	C1093.693848,624.831848 1093.697632,622.918030 1093.693237,621.004211 
	C1093.627563,592.844238 1093.837891,564.679016 1093.297852,536.528137 
	C1093.164062,529.553711 1091.151855,522.447449 1088.991699,515.726929 
	C1086.824463,508.984802 1081.257446,505.104645 1074.536011,503.062866 
	C1052.142578,496.260345 1031.697632,510.334259 1031.086792,534.049805 
	C1030.340576,563.026306 1030.776367,592.033203 1030.701782,621.026978 
	C1030.697266,622.809509 1030.701172,624.592102 1030.701172,626.602051 
	C1011.012512,626.602051 991.901611,626.602051 971.997253,626.602051 
	C971.997253,577.627747 971.997253,528.563904 971.997253,479.000061 
z"/>
<path fill="#FDFEFD" opacity="1.000000" stroke="none" 
	d="
M718.331543,626.932373 
	C717.041626,626.557434 715.963196,626.380981 715.477905,625.749084 
	C715.063293,625.209351 715.299194,624.146729 715.299255,623.315369 
	C715.302673,556.989502 715.310852,490.663666 715.327515,424.337830 
	C715.327637,424.012634 715.453857,423.687439 715.590454,423.027710 
	C734.927063,423.027710 754.332642,423.027710 773.815186,423.027710 
	C773.815186,490.891449 773.815186,558.668152 773.815186,626.933350 
	C755.354492,626.933350 737.077454,626.933350 718.331543,626.932373 
z"/>
<path fill="#022B17" opacity="1.000000" stroke="none" 
	d="
M644.701172,541.127930 
	C644.900757,563.749573 629.407959,576.008606 615.618347,578.906067 
	C596.053833,583.017029 577.617371,574.688110 570.571167,557.944824 
	C564.411194,543.307312 565.808777,529.029968 576.401245,516.804321 
	C587.460205,504.040253 602.047363,500.825928 617.762695,505.467133 
	C632.971619,509.958771 641.738770,520.945740 644.227722,536.726562 
	C644.434814,538.039795 644.545105,539.368225 644.701172,541.127930 
z"/>
<path fill="#002B17" opacity="1.000000" stroke="none" 
	d="
M1290.522949,454.889496 
	C1299.103149,480.051544 1307.545776,504.895874 1315.961182,529.749390 
	C1316.106934,530.179688 1315.926270,530.720581 1315.872070,531.656311 
	C1298.353638,531.656311 1280.869629,531.656311 1262.564331,531.656311 
	C1271.441895,505.118896 1280.207520,478.916290 1289.225342,451.959930 
	C1289.864258,453.402466 1290.123413,453.987579 1290.522949,454.889496 
z"/>
<path fill="#042D1A" opacity="1.000000" stroke="none" 
	d="
M889.887939,561.065063 
	C892.194336,561.065125 894.017883,561.065125 895.851074,561.065125 
	C895.211060,574.021057 882.895020,586.102844 869.112610,586.860657 
	C864.405273,587.119568 859.514954,586.399170 854.899475,585.313232 
	C850.364197,584.246155 847.532837,580.861877 847.064392,576.030884 
	C846.567383,570.905029 848.528320,566.532593 853.086487,564.382385 
	C856.879761,562.593079 861.254211,561.463562 865.442627,561.207092 
	C873.403137,560.719604 881.414734,561.065308 889.887939,561.065063 
z"/>
</svg>