<?xml version="1.0" standalone="no"?>
<!DOCTYPE svg PUBLIC "-//W3C//DTD SVG 20010904//EN"
 "http://www.w3.org/TR/2001/REC-SVG-20010904/DTD/svg10.dtd">
<svg version="1.0" xmlns="http://www.w3.org/2000/svg"
 width="1600.000000pt" height="1600.000000pt" viewBox="0 0 1600.000000 1600.000000"
 preserveAspectRatio="xMidYMid meet">

<g transform="translate(0.000000,1600.000000) scale(0.100000,-0.100000)"
fill="#000000" stroke="none">
<path d="M0 8000 l0 -4000 4164 0 4165 0 3773 3938 c2075 2165 3800 3965 3832
4000 l59 62 -7996 0 -7997 0 0 -4000z m3090 1976 c270 -28 478 -65 654 -118
127 -38 230 -84 223 -100 -31 -77 -241 -611 -262 -668 -15 -41 -31 -79 -35
-84 -5 -4 -35 1 -67 12 -227 79 -696 152 -976 152 -186 0 -375 -33 -475 -84
-27 -13 -66 -44 -89 -69 -73 -79 -80 -207 -18 -313 77 -131 410 -272 1012
-430 228 -59 350 -102 498 -173 139 -67 204 -107 308 -191 153 -123 259 -275
322 -459 l21 -64 21 54 c12 30 222 567 468 1194 246 627 466 1190 490 1250
l42 110 589 2 589 3 627 -1568 627 -1567 1 1568 0 1567 824 0 c770 0 831 -1
938 -19 304 -52 579 -193 794 -406 223 -220 358 -466 422 -770 36 -168 38
-426 4 -593 -125 -621 -601 -1087 -1220 -1193 -97 -16 -163 -19 -433 -19
l-319 0 0 -500 0 -500 -922 2 -921 3 -96 287 c-53 158 -99 290 -103 293 -4 4
-42 -7 -85 -23 -436 -167 -901 -174 -1357 -21 -81 27 -150 49 -151 47 -1 -2
-46 -135 -99 -295 l-98 -293 -584 0 c-342 0 -584 4 -584 9 0 5 30 85 66 178
36 92 70 178 75 191 7 19 2 17 -44 -17 -247 -182 -636 -315 -1030 -352 -166
-15 -634 -6 -817 16 -280 33 -524 89 -705 162 -113 45 -215 100 -215 116 0 10
260 860 265 865 2 2 26 -11 53 -28 167 -102 479 -197 757 -230 125 -15 405
-15 505 -1 201 29 356 91 414 164 28 35 31 46 31 105 -1 82 -24 130 -90 191
-89 82 -247 142 -630 241 -447 116 -585 163 -745 259 -354 210 -560 575 -560
991 0 411 238 775 638 974 139 70 357 131 555 156 107 13 727 4 897 -14z"/>
<path d="M8670 8499 l0 -501 293 4 c267 4 297 7 351 26 148 54 260 162 316
302 27 68 37 195 21 270 -41 192 -218 360 -411 390 -36 5 -179 10 -317 10
l-253 0 0 -501z"/>
<path d="M5826 8833 c-4 -10 -116 -328 -248 -707 -229 -657 -239 -690 -222
-704 155 -116 508 -153 773 -82 87 24 197 81 195 101 -1 13 -483 1401 -489
1407 -1 2 -6 -5 -9 -15z"/>
</g>
</svg>
