<?xml version="1.0" standalone="no"?>
<!DOCTYPE svg PUBLIC "-//W3C//DTD SVG 20010904//EN"
 "http://www.w3.org/TR/2001/REC-SVG-20010904/DTD/svg10.dtd">
<svg version="1.0" xmlns="http://www.w3.org/2000/svg"
 width="414.000000pt" height="122.000000pt" viewBox="0 0 414.000000 122.000000"
 preserveAspectRatio="xMidYMid meet">

<g transform="translate(0.000000,122.000000) scale(0.100000,-0.100000)"
fill="#000000" stroke="none">
<path d="M0 610 l0 -610 2070 0 2070 0 0 610 0 610 -2070 0 -2070 0 0 -610z
m720 195 l0 -45 -155 0 -155 0 0 -85 0 -85 145 0 145 0 0 -45 0 -45 -145 0
-146 0 3 -87 3 -88 150 0 150 0 3 -42 3 -43 -200 0 -201 0 0 305 0 305 200 0
200 0 0 -45z m840 0 l0 -45 -50 0 -50 0 0 45 0 45 50 0 50 0 0 -45z m1080 0
l0 -45 -50 0 -50 0 0 45 0 45 50 0 50 0 0 -45z m1111 24 c11 -5 17 -14 14 -20
-4 -5 -14 -5 -27 2 -12 6 -43 9 -69 7 -46 -5 -58 0 -42 15 10 11 102 8 124 -4z
m-175 -65 c-9 -13 -16 -41 -16 -64 0 -40 -15 -54 -27 -24 -6 17 13 92 29 111
18 22 30 2 14 -23z m-1834 -31 l3 -58 48 -3 47 -3 0 -40 0 -39 -50 0 -50 0 0
-119 c0 -66 3 -126 6 -135 4 -11 19 -16 50 -16 l44 0 0 -40 0 -40 -55 0 c-60
0 -109 19 -119 45 -3 9 -6 82 -6 161 l0 144 -35 0 c-34 0 -35 1 -35 40 0 39 1
40 35 40 l35 0 0 60 0 60 40 0 39 0 3 -57z m2016 22 c34 -40 30 -96 -9 -129
-78 -66 -187 11 -149 105 26 62 113 75 158 24z m73 -15 c12 -41 6 -90 -12 -90
-6 0 -8 11 -4 29 4 17 0 43 -9 64 -14 34 -12 52 5 41 5 -3 14 -22 20 -44z
m-2778 -73 c18 -8 38 -21 46 -31 13 -16 15 -15 35 3 70 65 198 51 252 -28 23
-34 24 -42 24 -203 l0 -168 -40 0 -40 0 0 139 c0 142 -6 175 -35 204 -25 26
-88 22 -122 -7 l-28 -24 -4 -156 -3 -156 -39 0 -39 0 0 139 c0 142 -6 175 -35
204 -25 26 -88 22 -122 -7 l-28 -24 -3 -156 -4 -156 -39 0 -39 0 0 215 0 215
40 0 c34 0 40 -3 40 -21 0 -20 0 -20 28 -1 50 35 100 41 155 19z m1922 -18
c35 -24 71 -82 60 -98 -9 -15 -77 -5 -87 13 -26 46 -118 58 -159 20 -43 -39
-10 -69 101 -91 96 -19 136 -47 149 -103 14 -65 -15 -120 -76 -146 -42 -18
-154 -18 -197 0 -39 16 -86 73 -86 104 0 19 6 22 38 22 30 0 41 -5 51 -24 28
-51 124 -64 166 -22 20 20 23 30 16 48 -9 25 -43 40 -135 57 -73 13 -104 33
-122 77 -28 66 10 141 82 164 52 17 160 5 199 -21z m414 -2 c52 -35 93 -118
89 -178 l-3 -44 -168 -5 -167 -5 21 -42 c22 -44 67 -73 114 -73 31 0 81 24 93
46 6 11 21 14 56 12 l48 -3 -31 -42 c-45 -62 -98 -86 -181 -81 -126 7 -200 90
-200 224 0 92 38 159 110 197 48 25 63 28 118 24 45 -3 74 -12 101 -30z
m-1829 -192 l0 -215 -45 0 -45 0 0 215 0 215 45 0 45 0 0 -215z m414 108 c43
-173 57 -216 66 -207 8 8 28 78 79 272 l12 42 59 0 c47 0 60 -3 63 -17 3 -10
22 -82 42 -160 21 -79 42 -143 46 -143 5 0 9 3 9 6 0 3 14 58 31 122 16 65 35
134 40 155 9 36 11 37 55 37 38 0 45 -3 40 -17 -2 -10 -28 -107 -57 -215 l-53
-198 -62 0 -63 0 -15 52 c-8 29 -27 99 -42 156 -27 100 -38 119 -48 85 -5 -18
-45 -169 -66 -250 l-11 -43 -64 0 -64 0 -11 43 c-6 23 -31 115 -56 204 -24 89
-44 167 -44 173 0 5 20 10 44 10 l44 0 26 -107z m666 -108 l0 -215 -45 0 -45
0 0 215 0 215 45 0 45 0 0 -215z m950 146 c0 -15 66 -41 103 -41 20 0 49 10
71 25 32 22 37 23 34 8 -5 -28 -86 -65 -127 -59 -58 9 -143 76 -96 76 8 0 15
-4 15 -9z"/>
<path d="M3665 760 c-34 -13 -46 -36 -43 -76 4 -48 41 -74 85 -59 61 22 69
101 13 130 -16 8 -30 15 -32 14 -2 0 -12 -4 -23 -9z"/>
<path d="M3225 596 c-36 -16 -60 -41 -74 -79 l-11 -27 129 0 c129 0 129 0 123
23 -9 37 -32 64 -67 81 -40 19 -60 20 -100 2z"/>
</g>
</svg>
