<svg version="1.1" id="Layer_1" xmlns="http://www.w3.org/2000/svg" xmlns:xlink="http://www.w3.org/1999/xlink" x="0px" y="0px"
	 width="100%" viewBox="0 0 394 128" enable-background="new 0 0 394 128" xml:space="preserve">
<path fill="#FEFFFE" opacity="1.000000" stroke="none" 
	d="
M282.000000,129.000000 
	C188.000015,129.000000 94.500023,129.000000 1.000025,129.000000 
	C1.000017,86.333351 1.000017,43.666698 1.000008,1.000036 
	C132.333298,1.000024 263.666595,1.000024 394.999939,1.000012 
	C394.999939,43.666630 394.999939,86.333260 394.999969,128.999939 
	C357.500000,129.000000 320.000000,129.000000 282.000000,129.000000 
M32.291832,24.547338 
	C25.417448,28.245497 22.536953,34.180206 22.548290,41.789448 
	C22.571114,57.107113 22.491770,72.425163 22.572746,87.742432 
	C22.639364,100.343880 29.837706,107.530830 42.398579,107.585091 
	C57.549503,107.650551 72.701065,107.642799 87.852081,107.589249 
	C100.596146,107.544212 107.923073,100.148346 107.943588,87.392456 
	C107.967415,72.574280 107.960335,57.756027 107.945786,42.937832 
	C107.932938,29.852608 100.680603,22.488075 87.647598,22.439228 
	C72.663094,22.383064 57.677048,22.327089 42.694454,22.505085 
	C39.443424,22.543709 36.204216,23.577045 32.291832,24.547338 
M171.593262,85.831841 
	C171.879013,85.422676 172.401672,85.021263 172.415344,84.603195 
	C172.664413,76.991577 172.921951,69.377937 172.919403,61.764809 
	C172.919205,61.163799 171.038681,60.082294 170.002121,60.044487 
	C165.016220,59.862606 160.014053,59.833492 155.032242,60.064526 
	C153.956284,60.114422 152.250183,61.285904 152.008224,62.238834 
	C150.353714,68.755013 151.920975,70.769325 158.414124,71.088799 
	C158.885010,71.111969 159.347626,71.303223 159.998978,71.461166 
	C159.998978,73.749313 159.998978,75.983688 159.998978,78.413902 
	C158.655640,78.624832 157.540222,78.891853 156.412643,78.961197 
	C151.406540,79.269035 146.500824,78.933891 143.988724,73.704185 
	C141.077774,67.644112 140.972809,61.337612 144.631546,55.600155 
	C147.758652,50.696373 152.977539,50.737301 158.078186,51.475330 
	C160.529541,51.830032 162.913223,52.639984 165.361053,53.037468 
	C166.417313,53.208988 168.337326,53.171970 168.531006,52.691715 
	C169.565399,50.126865 170.670975,47.392487 170.674011,44.715523 
	C170.675110,43.755379 167.772858,42.384972 166.006256,41.917194 
	C162.657974,41.030594 159.191574,40.327114 155.741364,40.133453 
	C140.199966,39.261131 130.867096,47.362545 129.319092,62.815250 
	C127.932083,76.660568 136.010818,88.244530 148.640427,89.846497 
	C156.307220,90.818970 163.895432,89.951591 171.593262,85.831841 
M360.904327,58.384338 
	C358.718872,63.747025 356.533417,69.109711 354.401581,74.340858 
	C350.936676,57.264259 346.869873,52.991074 336.111237,55.795471 
	C339.100739,65.434441 341.884033,75.130409 345.205750,84.638283 
	C346.094757,87.182968 348.627228,89.153503 351.125000,92.292053 
	C350.199585,96.969620 344.708282,94.333855 340.781250,95.400055 
	C340.512146,97.133469 340.299133,98.769386 339.998871,100.389137 
	C339.175476,104.830841 341.082947,106.202980 345.439880,106.118462 
	C353.649902,105.959206 358.176666,103.241920 361.066925,94.901291 
	C365.243835,82.847633 369.016144,70.653145 372.885315,58.494633 
	C373.197968,57.512123 372.926575,56.343750 372.926575,53.799595 
	C368.648590,55.323486 365.061676,56.601204 360.904327,58.384338 
M310.157990,59.467754 
	C303.249939,52.997002 296.493286,52.945484 288.010773,59.307899 
	C286.770447,58.250114 285.653687,56.980408 284.267792,56.172272 
	C279.067535,53.139927 276.223846,54.753689 276.215118,60.630234 
	C276.203003,68.782249 276.510803,76.948959 276.111328,85.081367 
	C275.827026,90.869125 279.424835,89.957100 282.898071,90.036697 
	C286.452393,90.118156 289.446503,90.380127 289.148163,85.040474 
	C288.865051,79.973457 289.206451,74.706665 290.409637,69.806778 
	C290.858551,67.978584 294.503815,65.952431 296.727142,65.910713 
	C298.064972,65.885605 300.402893,69.399399 300.659332,71.520187 
	C301.254211,76.439949 300.629395,81.497665 301.022797,86.457901 
	C301.122894,87.719925 302.988281,89.290413 304.393646,89.874954 
	C305.812225,90.464989 307.680603,89.870949 309.327789,90.036018 
	C312.516479,90.355568 313.354431,88.795372 313.254486,85.905884 
	C313.105042,81.585495 313.545197,77.223816 313.124756,72.939529 
	C312.698669,68.597282 311.531738,64.327728 310.157990,59.467754 
M258.774231,79.797005 
	C257.100830,79.057846 255.427429,78.318687 253.754028,77.579529 
	C257.925018,76.018997 261.586609,75.733467 265.059784,74.769226 
	C269.060364,73.658577 271.639496,70.774277 271.921509,66.505257 
	C272.208588,62.160339 270.356781,58.873474 266.355530,56.769604 
	C257.020844,51.861378 245.874100,55.303150 241.809784,64.458939 
	C237.382523,74.432365 241.560959,85.976578 251.795471,88.748688 
	C257.431000,90.275124 263.843414,89.039627 269.893677,88.776123 
	C270.550995,88.747498 271.767426,86.798767 271.624847,85.918884 
	C271.191315,83.243866 270.218658,80.656212 269.478912,78.113472 
	C265.766083,78.750626 262.683838,79.279572 258.774231,79.797005 
M225.218597,54.849854 
	C213.860123,53.488415 207.407623,61.060379 206.040909,68.900055 
	C204.367004,78.501785 209.797165,87.362343 219.145615,89.460838 
	C223.233368,90.378448 227.761795,90.046272 231.983719,89.483490 
	C238.129440,88.664246 237.865662,88.404510 236.506226,82.061722 
	C235.780792,78.676956 234.829361,77.709366 231.213776,78.747131 
	C227.267349,79.879868 222.683182,81.495193 219.262589,76.686577 
	C223.479477,76.011505 227.609116,76.186996 230.848267,74.574089 
	C233.568359,73.219635 236.106323,70.094910 237.173630,67.184952 
	C238.477219,63.630840 237.010452,59.805820 233.429062,57.735432 
	C231.188263,56.440044 228.551575,55.829498 225.218597,54.849854 
M182.420395,54.936096 
	C181.388351,56.059803 179.491058,57.160862 179.460968,58.310802 
	C179.217056,67.630157 179.364532,76.958969 179.297729,86.284218 
	C179.277786,89.068901 180.436783,90.252945 183.210403,90.034096 
	C184.699905,89.916573 186.218811,89.889420 187.702530,90.039009 
	C190.914871,90.362877 192.228378,89.133064 192.080261,85.800873 
	C191.880859,81.314743 191.941727,76.805862 192.134140,72.317177 
	C192.279068,68.935852 193.502075,65.404358 197.416183,65.741013 
	C203.004669,66.221680 203.780991,62.354645 205.410538,58.803524 
	C206.662628,56.075012 205.447723,54.694126 202.997925,54.945038 
	C198.737122,55.381435 194.537079,56.410950 190.311554,57.191799 
	C190.468658,57.484058 190.625748,57.776318 190.782837,58.068577 
	C188.272125,57.035126 185.761398,56.001675 182.420395,54.936096 
M324.106873,40.773331 
	C321.295502,40.260048 319.813019,40.914124 319.847992,44.290737 
	C319.992706,58.263325 319.950623,72.238518 319.872192,86.212158 
	C319.856720,88.964226 320.801514,90.243042 323.642578,90.022072 
	C325.296143,89.893456 327.134491,90.432655 328.584351,89.876022 
	C330.018768,89.325294 332.108429,87.793030 332.128510,86.659729 
	C332.346436,74.354874 332.312836,62.042278 332.124695,49.735203 
	C332.054474,45.141964 329.820953,41.843208 324.106873,40.773331 
z"/>
<path fill="#03CD84" opacity="1.000000" stroke="none" 
	d="
M32.625694,24.349783 
	C36.204216,23.577045 39.443424,22.543709 42.694454,22.505085 
	C57.677048,22.327089 72.663094,22.383064 87.647598,22.439228 
	C100.680603,22.488075 107.932938,29.852608 107.945786,42.937832 
	C107.960335,57.756027 107.967415,72.574280 107.943588,87.392456 
	C107.923073,100.148346 100.596146,107.544212 87.852081,107.589249 
	C72.701065,107.642799 57.549503,107.650551 42.398579,107.585091 
	C29.837706,107.530830 22.639364,100.343880 22.572746,87.742432 
	C22.491770,72.425163 22.571114,57.107113 22.548290,41.789448 
	C22.536953,34.180206 25.417448,28.245497 32.625694,24.349783 
M75.314499,50.490852 
	C69.727959,42.191887 61.393700,46.052414 54.088646,45.147182 
	C51.242504,66.063957 56.523438,71.067169 77.413666,67.740463 
	C76.866608,62.247059 76.313789,56.695827 75.314499,50.490852 
M53.569393,73.505600 
	C53.910404,74.943344 54.063469,76.459831 54.626793,77.804443 
	C56.501472,82.279152 61.604832,85.309227 66.160347,84.818283 
	C71.307205,84.263611 76.135750,79.964561 76.639389,75.021217 
	C76.770752,73.731850 75.568733,72.306633 74.979111,70.943810 
	C73.957352,71.886772 72.380798,72.654434 72.017128,73.805351 
	C70.893806,77.360321 68.852882,79.888634 65.083611,79.786774 
	C61.378624,79.686661 59.331856,77.343628 58.522415,73.532440 
	C57.786808,70.068886 55.890224,69.340919 53.569393,73.505600 
z"/>
<path fill="#04CD84" opacity="1.000000" stroke="none" 
	d="
M171.265930,86.075409 
	C163.895432,89.951591 156.307220,90.818970 148.640427,89.846497 
	C136.010818,88.244530 127.932083,76.660568 129.319092,62.815250 
	C130.867096,47.362545 140.199966,39.261131 155.741364,40.133453 
	C159.191574,40.327114 162.657974,41.030594 166.006256,41.917194 
	C167.772858,42.384972 170.675110,43.755379 170.674011,44.715523 
	C170.670975,47.392487 169.565399,50.126865 168.531006,52.691715 
	C168.337326,53.171970 166.417313,53.208988 165.361053,53.037468 
	C162.913223,52.639984 160.529541,51.830032 158.078186,51.475330 
	C152.977539,50.737301 147.758652,50.696373 144.631546,55.600155 
	C140.972809,61.337612 141.077774,67.644112 143.988724,73.704185 
	C146.500824,78.933891 151.406540,79.269035 156.412643,78.961197 
	C157.540222,78.891853 158.655640,78.624832 159.998978,78.413902 
	C159.998978,75.983688 159.998978,73.749313 159.998978,71.461166 
	C159.347626,71.303223 158.885010,71.111969 158.414124,71.088799 
	C151.920975,70.769325 150.353714,68.755013 152.008224,62.238834 
	C152.250183,61.285904 153.956284,60.114422 155.032242,60.064526 
	C160.014053,59.833492 165.016220,59.862606 170.002121,60.044487 
	C171.038681,60.082294 172.919205,61.163799 172.919403,61.764809 
	C172.921951,69.377937 172.664413,76.991577 172.415344,84.603195 
	C172.401672,85.021263 171.879013,85.422676 171.265930,86.075409 
z"/>
<path fill="#05CD84" opacity="1.000000" stroke="none" 
	d="
M361.189545,58.131630 
	C365.061676,56.601204 368.648590,55.323486 372.926575,53.799595 
	C372.926575,56.343750 373.197968,57.512123 372.885315,58.494633 
	C369.016144,70.653145 365.243835,82.847633 361.066925,94.901291 
	C358.176666,103.241920 353.649902,105.959206 345.439880,106.118462 
	C341.082947,106.202980 339.175476,104.830841 339.998871,100.389137 
	C340.299133,98.769386 340.512146,97.133469 340.781250,95.400055 
	C344.708282,94.333855 350.199585,96.969620 351.125000,92.292053 
	C348.627228,89.153503 346.094757,87.182968 345.205750,84.638283 
	C341.884033,75.130409 339.100739,65.434441 336.111237,55.795471 
	C346.869873,52.991074 350.936676,57.264259 354.401581,74.340858 
	C356.533417,69.109711 358.718872,63.747025 361.189545,58.131630 
z"/>
<path fill="#05CD84" opacity="1.000000" stroke="none" 
	d="
M310.423645,59.747047 
	C311.531738,64.327728 312.698669,68.597282 313.124756,72.939529 
	C313.545197,77.223816 313.105042,81.585495 313.254486,85.905884 
	C313.354431,88.795372 312.516479,90.355568 309.327789,90.036018 
	C307.680603,89.870949 305.812225,90.464989 304.393646,89.874954 
	C302.988281,89.290413 301.122894,87.719925 301.022797,86.457901 
	C300.629395,81.497665 301.254211,76.439949 300.659332,71.520187 
	C300.402893,69.399399 298.064972,65.885605 296.727142,65.910713 
	C294.503815,65.952431 290.858551,67.978584 290.409637,69.806778 
	C289.206451,74.706665 288.865051,79.973457 289.148163,85.040474 
	C289.446503,90.380127 286.452393,90.118156 282.898071,90.036697 
	C279.424835,89.957100 275.827026,90.869125 276.111328,85.081367 
	C276.510803,76.948959 276.203003,68.782249 276.215118,60.630234 
	C276.223846,54.753689 279.067535,53.139927 284.267792,56.172272 
	C285.653687,56.980408 286.770447,58.250114 288.014465,59.303421 
	C296.493286,52.945484 303.249939,52.997002 310.423645,59.747047 
z"/>
<path fill="#05CD84" opacity="1.000000" stroke="none" 
	d="
M259.187897,79.802765 
	C262.683838,79.279572 265.766083,78.750626 269.478912,78.113472 
	C270.218658,80.656212 271.191315,83.243866 271.624847,85.918884 
	C271.767426,86.798767 270.550995,88.747498 269.893677,88.776123 
	C263.843414,89.039627 257.431000,90.275124 251.795471,88.748688 
	C241.560959,85.976578 237.382523,74.432365 241.809784,64.458939 
	C245.874100,55.303150 257.020844,51.861378 266.355530,56.769604 
	C270.356781,58.873474 272.208588,62.160339 271.921509,66.505257 
	C271.639496,70.774277 269.060364,73.658577 265.059784,74.769226 
	C261.586609,75.733467 257.925018,76.018997 253.754028,77.579529 
	C255.427429,78.318687 257.100830,79.057846 259.187897,79.802765 
M260.816101,65.739647 
	C259.057007,65.077515 257.227142,63.784962 255.563400,63.971817 
	C254.428024,64.099327 253.524689,66.292999 252.517624,67.562866 
	C252.916595,68.033531 253.315567,68.504196 253.714539,68.974869 
	C256.067688,68.148087 258.420868,67.321304 260.816101,65.739647 
z"/>
<path fill="#05CD84" opacity="1.000000" stroke="none" 
	d="
M225.655548,54.880753 
	C228.551575,55.829498 231.188263,56.440044 233.429062,57.735432 
	C237.010452,59.805820 238.477219,63.630840 237.173630,67.184952 
	C236.106323,70.094910 233.568359,73.219635 230.848267,74.574089 
	C227.609116,76.186996 223.479477,76.011505 219.262589,76.686577 
	C222.683182,81.495193 227.267349,79.879868 231.213776,78.747131 
	C234.829361,77.709366 235.780792,78.676956 236.506226,82.061722 
	C237.865662,88.404510 238.129440,88.664246 231.983719,89.483490 
	C227.761795,90.046272 223.233368,90.378448 219.145615,89.460838 
	C209.797165,87.362343 204.367004,78.501785 206.040909,68.900055 
	C207.407623,61.060379 213.860123,53.488415 225.655548,54.880753 
M219.034531,65.437836 
	C217.308441,71.857056 222.145264,66.965164 223.622314,67.901108 
	C223.921707,68.090813 225.423401,66.383118 226.370819,65.550148 
	C225.229599,64.779892 224.148224,63.535564 222.929199,63.381691 
	C221.854828,63.246075 220.626709,64.328568 219.034531,65.437836 
z"/>
<path fill="#08CE85" opacity="1.000000" stroke="none" 
	d="
M182.835541,54.952160 
	C185.761398,56.001675 188.272125,57.035126 190.782837,58.068577 
	C190.625748,57.776318 190.468658,57.484058 190.311554,57.191799 
	C194.537079,56.410950 198.737122,55.381435 202.997925,54.945038 
	C205.447723,54.694126 206.662628,56.075012 205.410538,58.803524 
	C203.780991,62.354645 203.004669,66.221680 197.416183,65.741013 
	C193.502075,65.404358 192.279068,68.935852 192.134140,72.317177 
	C191.941727,76.805862 191.880859,81.314743 192.080261,85.800873 
	C192.228378,89.133064 190.914871,90.362877 187.702530,90.039009 
	C186.218811,89.889420 184.699905,89.916573 183.210403,90.034096 
	C180.436783,90.252945 179.277786,89.068901 179.297729,86.284218 
	C179.364532,76.958969 179.217056,67.630157 179.460968,58.310802 
	C179.491058,57.160862 181.388351,56.059803 182.835541,54.952160 
z"/>
<path fill="#01CD82" opacity="1.000000" stroke="none" 
	d="
M324.539856,40.829453 
	C329.820953,41.843208 332.054474,45.141964 332.124695,49.735203 
	C332.312836,62.042278 332.346436,74.354874 332.128510,86.659729 
	C332.108429,87.793030 330.018768,89.325294 328.584351,89.876022 
	C327.134491,90.432655 325.296143,89.893456 323.642578,90.022072 
	C320.801514,90.243042 319.856720,88.964226 319.872192,86.212158 
	C319.950623,72.238518 319.992706,58.263325 319.847992,44.290737 
	C319.813019,40.914124 321.295502,40.260048 324.539856,40.829453 
z"/>
<path fill="#F0FBF6" opacity="1.000000" stroke="none" 
	d="
M75.537735,50.817722 
	C76.313789,56.695827 76.866608,62.247059 77.413666,67.740463 
	C56.523438,71.067169 51.242504,66.063957 54.088646,45.147182 
	C61.393700,46.052414 69.727959,42.191887 75.537735,50.817722 
M68.589127,63.623837 
	C71.695396,64.127716 72.083336,62.408566 72.041626,59.829861 
	C71.975449,55.737900 72.323418,51.408329 67.077118,50.341625 
	C64.449516,49.807365 61.623589,50.248516 58.954815,50.248516 
	C57.945835,62.059734 58.770489,63.250168 68.589127,63.623837 
z"/>
<path fill="#F3FCF7" opacity="1.000000" stroke="none" 
	d="
M53.629761,73.134674 
	C55.890224,69.340919 57.786808,70.068886 58.522415,73.532440 
	C59.331856,77.343628 61.378624,79.686661 65.083611,79.786774 
	C68.852882,79.888634 70.893806,77.360321 72.017128,73.805351 
	C72.380798,72.654434 73.957352,71.886772 74.979111,70.943810 
	C75.568733,72.306633 76.770752,73.731850 76.639389,75.021217 
	C76.135750,79.964561 71.307205,84.263611 66.160347,84.818283 
	C61.604832,85.309227 56.501472,82.279152 54.626793,77.804443 
	C54.063469,76.459831 53.910404,74.943344 53.629761,73.134674 
z"/>
<path fill="#EAFAF2" opacity="1.000000" stroke="none" 
	d="
M260.795044,66.117081 
	C258.420868,67.321304 256.067688,68.148087 253.714539,68.974869 
	C253.315567,68.504196 252.916595,68.033531 252.517624,67.562866 
	C253.524689,66.292999 254.428024,64.099327 255.563400,63.971817 
	C257.227142,63.784962 259.057007,65.077515 260.795044,66.117081 
z"/>
<path fill="#EAFAF2" opacity="1.000000" stroke="none" 
	d="
M219.250504,65.155502 
	C220.626709,64.328568 221.854828,63.246075 222.929199,63.381691 
	C224.148224,63.535564 225.229599,64.779892 226.370819,65.550148 
	C225.423401,66.383118 223.921707,68.090813 223.622314,67.901108 
	C222.145264,66.965164 217.308441,71.857056 219.250504,65.155502 
z"/>
<path fill="#09CE85" opacity="1.000000" stroke="none" 
	d="
M68.166641,63.621677 
	C58.770489,63.250168 57.945835,62.059734 58.954815,50.248516 
	C61.623589,50.248516 64.449516,49.807365 67.077118,50.341625 
	C72.323418,51.408329 71.975449,55.737900 72.041626,59.829861 
	C72.083336,62.408566 71.695396,64.127716 68.166641,63.621677 
z"/>
</svg>