<?xml version="1.0" standalone="no"?>
<!DOCTYPE svg PUBLIC "-//W3C//DTD SVG 20010904//EN"
 "http://www.w3.org/TR/2001/REC-SVG-20010904/DTD/svg10.dtd">
<svg version="1.0" xmlns="http://www.w3.org/2000/svg"
 width="1870.000000pt" height="690.000000pt" viewBox="0 0 1870.000000 690.000000"
 preserveAspectRatio="xMidYMid meet">

<g transform="translate(0.000000,690.000000) scale(0.100000,-0.100000)"
fill="#000000" stroke="none">
<path d="M20 3530 l0 -830 830 0 830 0 0 830 0 830 -830 0 -830 0 0 -830z"/>
<path d="M15263 3800 c-195 -35 -345 -166 -405 -350 -16 -51 -21 -101 -25
-227 l-6 -163 -123 0 -124 0 0 -140 0 -140 125 0 125 0 0 -610 0 -610 180 0
180 0 0 610 0 610 264 0 265 0 3 -457 c4 -434 5 -461 25 -520 58 -172 149
-246 340 -275 82 -12 195 -1 292 28 l51 15 0 144 0 144 -47 -22 c-33 -14 -69
-21 -113 -22 -88 0 -136 25 -170 91 l-25 48 -3 413 -3 413 180 0 181 0 0 140
0 140 -180 0 -180 0 0 220 c0 244 5 230 -71 206 -24 -8 -97 -31 -161 -51
l-118 -36 0 -170 0 -169 -265 0 -265 0 0 136 c0 153 9 196 53 250 60 72 171
94 282 55 l55 -19 0 148 0 149 -37 11 c-54 15 -218 21 -280 10z"/>
<path d="M7296 3686 c-47 -18 -104 -70 -122 -113 -18 -41 -18 -114 -1 -156 22
-51 87 -103 146 -116 181 -39 321 132 238 290 -45 85 -168 130 -261 95z"/>
<path d="M4580 2605 l0 -1045 165 0 166 0 -3 854 c-2 470 -2 853 0 852 1 -2
14 -43 27 -92 14 -49 166 -431 339 -849 l313 -760 119 -3 119 -2 315 777 c173
427 323 811 335 854 l20 77 -3 -854 -4 -854 181 0 181 0 0 1045 0 1045 -248 0
-248 0 -267 -652 c-147 -359 -290 -716 -317 -792 -28 -77 -52 -141 -54 -143
-2 -2 -24 56 -49 129 -26 73 -165 430 -310 793 l-264 660 -257 3 -256 2 0
-1045z"/>
<path d="M8487 3089 c-302 -29 -548 -216 -642 -486 -57 -164 -70 -400 -29
-548 55 -204 182 -363 359 -450 116 -58 209 -78 365 -78 148 0 258 20 363 67
l57 25 0 160 0 160 -57 -35 c-252 -151 -541 -110 -673 96 -54 85 -73 159 -74
295 -1 131 14 200 61 287 35 64 130 153 195 183 148 66 330 52 482 -40 32 -19
60 -35 62 -35 3 0 3 75 2 167 l-3 167 -50 19 c-110 41 -277 59 -418 46z"/>
<path d="M10820 3090 c-282 -26 -488 -158 -601 -385 -67 -136 -82 -213 -82
-410 0 -143 3 -182 21 -248 55 -200 181 -358 353 -440 126 -61 222 -81 379
-81 157 0 255 21 375 79 190 92 304 231 371 450 25 82 27 105 28 260 1 201
-12 271 -80 412 -125 262 -407 396 -764 363z m165 -291 c224 -41 336 -228 321
-534 -13 -265 -114 -409 -312 -446 -226 -42 -413 73 -480 296 -23 75 -26 283
-5 365 43 172 146 283 293 315 79 17 110 18 183 4z"/>
<path d="M12333 3090 c-143 -15 -279 -74 -366 -158 -21 -20 -55 -70 -75 -111
-32 -65 -37 -84 -40 -166 -10 -214 72 -334 303 -440 212 -98 261 -125 295
-160 33 -34 35 -41 35 -100 0 -57 -3 -67 -30 -95 -94 -98 -357 -72 -562 55
l-43 26 0 -170 0 -169 63 -21 c180 -60 400 -73 550 -32 162 43 281 133 340
258 30 64 32 74 32 183 0 110 -2 119 -32 181 -36 72 -99 138 -175 183 -26 15
-111 56 -188 91 -78 35 -158 76 -177 91 -94 71 -78 204 30 261 80 41 256 21
390 -45 l77 -38 -2 160 -3 161 -51 16 c-104 34 -262 50 -371 39z"/>
<path d="M13690 3089 c-116 -10 -200 -33 -300 -82 -120 -58 -239 -177 -298
-297 -65 -133 -86 -235 -85 -420 0 -126 4 -170 21 -235 72 -264 242 -435 507
-506 116 -31 325 -31 450 0 268 66 447 240 525 511 28 94 39 332 21 436 -55
315 -248 523 -536 578 -106 20 -202 25 -305 15z m244 -309 c168 -63 254 -243
243 -510 -10 -238 -83 -371 -237 -432 -80 -32 -241 -31 -322 1 -115 45 -205
158 -239 301 -19 78 -16 270 5 349 45 170 144 273 296 308 72 16 184 9 254
-17z"/>
<path d="M9903 3080 c-114 -17 -216 -94 -279 -212 l-39 -73 -3 133 -3 132
-174 0 -175 0 0 -750 0 -750 174 0 174 0 4 443 c4 390 7 448 22 497 40 121 97
199 179 243 57 30 188 30 265 0 l52 -21 0 174 0 173 -32 5 c-75 11 -116 13
-165 6z"/>
<path d="M7190 2310 l0 -750 175 0 175 0 0 750 0 750 -175 0 -175 0 0 -750z"/>
</g>
</svg>
