<?xml version="1.0" standalone="no"?>
<!DOCTYPE svg PUBLIC "-//W3C//DTD SVG 20010904//EN"
 "http://www.w3.org/TR/2001/REC-SVG-20010904/DTD/svg10.dtd">
<svg version="1.0" xmlns="http://www.w3.org/2000/svg"
 width="2400.000000pt" height="1260.000000pt" viewBox="0 0 2400.000000 1260.000000"
 preserveAspectRatio="xMidYMid meet">

<g transform="translate(0.000000,1260.000000) scale(0.100000,-0.100000)"
fill="#000000" stroke="none">
<path d="M8865 10444 c-766 -104 -1424 -572 -1768 -1260 -286 -571 -321 -1235
-97 -1833 24 -61 41 -113 39 -115 -2 -2 -38 -24 -79 -51 -169 -107 -378 -302
-503 -467 -400 -532 -513 -1217 -305 -1848 239 -728 875 -1256 1631 -1355 192
-25 457 -16 632 20 l30 6 47 -113 c122 -290 358 -603 610 -807 329 -265 728
-428 1153 -472 142 -14 386 -7 525 16 631 104 1176 473 1505 1021 35 58 78
139 97 180 18 41 39 74 46 74 7 0 30 -9 50 -19 110 -56 337 -121 512 -147 168
-24 459 -15 626 20 506 107 947 415 1220 851 25 41 47 75 48 75 0 0 37 -6 81
-14 549 -96 1162 8 1649 280 708 396 1182 1080 1308 1889 29 187 31 549 5 730
-61 409 -192 755 -412 1085 -109 164 -196 271 -323 397 -399 397 -890 645
-1447 729 -169 26 -542 26 -710 0 -170 -26 -399 -86 -555 -145 -73 -28 -134
-50 -135 -49 -167 260 -199 301 -340 447 -158 162 -299 272 -490 379 -463 259
-1047 331 -1525 186 -386 -117 -661 -269 -901 -501 l-87 -84 -65 78 c-90 108
-264 275 -375 361 -317 244 -705 403 -1112 458 -132 17 -451 17 -585 -2z
m4200 -2895 c98 -14 102 -19 69 -110 -36 -100 -39 -102 -102 -89 -126 28 -214
-28 -246 -155 -25 -101 -31 -95 93 -95 75 0 112 -4 119 -12 7 -9 5 -39 -6 -98
l-17 -85 -122 -3 c-105 -2 -123 -5 -127 -20 -2 -9 -41 -228 -86 -487 -53 -304
-92 -501 -111 -558 -50 -153 -127 -245 -238 -288 -96 -37 -328 -28 -344 14 -2
7 9 50 25 96 29 80 32 83 57 76 14 -3 55 -9 91 -11 100 -8 142 27 191 155 16
43 189 967 189 1010 0 7 -29 11 -79 11 -44 0 -83 5 -86 10 -10 16 16 160 32
176 10 10 38 14 93 14 l78 0 7 53 c19 153 99 293 200 353 47 27 145 52 210 53
22 0 71 -4 110 -10z m-3010 -774 l0 -760 -110 0 -110 0 -3 750 c-1 413 0 756
3 763 3 9 32 12 112 10 l108 -3 0 -760z m-1725 334 c79 -12 219 -67 234 -91 8
-13 5 -35 -13 -88 -31 -90 -39 -97 -88 -72 -121 62 -312 86 -381 49 -39 -21
-65 -75 -56 -112 11 -44 71 -82 189 -121 216 -71 311 -129 358 -218 18 -33 22
-58 22 -131 0 -78 -4 -97 -28 -147 -34 -70 -100 -130 -176 -160 -49 -20 -74
-22 -201 -23 -132 0 -152 2 -231 28 -110 36 -195 87 -191 113 7 46 56 164 68
164 7 0 37 -14 66 -31 212 -125 443 -115 473 21 15 69 -53 120 -230 170 -169
48 -274 112 -318 194 -18 33 -22 58 -22 131 0 78 4 97 28 147 15 31 44 70 63
87 42 37 120 78 171 90 53 13 186 13 263 0z m3665 -23 c101 -33 145 -59 145
-87 0 -30 -40 -136 -56 -149 -9 -8 -23 -6 -51 8 -122 63 -315 87 -380 48 -38
-24 -56 -55 -55 -97 2 -59 44 -86 231 -151 152 -52 222 -90 276 -151 51 -56
65 -96 65 -184 0 -135 -81 -255 -206 -303 -79 -31 -256 -39 -364 -16 -101 21
-260 100 -260 129 0 33 51 158 66 164 7 3 30 -5 49 -17 195 -120 411 -133 475
-28 54 89 -4 146 -210 207 -268 79 -364 177 -347 357 14 145 109 251 262 291
82 21 263 11 360 -21z m1707 3 c72 -21 170 -86 207 -137 78 -111 114 -235 115
-397 0 -196 -41 -321 -139 -424 -94 -99 -200 -141 -353 -141 -272 0 -446 147
-498 421 -30 153 -1 368 63 478 113 193 352 273 605 200z m1943 6 c33 -9 64
-20 69 -25 8 -8 -38 -154 -54 -173 -4 -5 -42 -1 -83 7 -92 19 -209 20 -260 2
-117 -42 -181 -144 -194 -307 -15 -192 63 -343 198 -383 66 -20 199 -20 263
-1 79 24 81 23 110 -56 38 -103 36 -112 -26 -132 -182 -57 -394 -45 -542 30
-147 75 -245 271 -246 491 0 275 126 476 340 541 36 11 79 22 95 24 60 10 271
-2 330 -18z m817 -6 c57 -16 79 -30 133 -80 109 -103 150 -223 143 -424 l-3
-100 -347 -3 -348 -2 0 -33 c0 -65 29 -137 74 -182 70 -70 182 -95 331 -76 48
7 112 21 142 33 30 11 58 16 63 12 15 -16 60 -156 54 -166 -25 -39 -200 -78
-352 -78 -189 0 -307 39 -411 136 -109 101 -155 224 -155 419 0 192 46 325
151 432 123 127 325 170 525 112z m-7117 6 c126 -33 204 -100 242 -208 16 -47
18 -92 18 -442 l0 -390 -135 -28 c-183 -37 -357 -46 -469 -23 -139 28 -210 76
-258 174 -25 50 -28 68 -28 152 0 82 4 103 26 151 35 74 95 133 172 169 92 44
153 53 321 48 l148 -5 -5 54 c-7 71 -32 111 -87 141 -42 22 -53 23 -160 19
-93 -3 -130 -9 -190 -31 -124 -45 -113 -47 -144 34 -37 100 -36 104 31 136
125 59 385 83 518 49z m1600 -19 c120 -43 210 -143 247 -273 23 -82 35 -256
19 -295 l-11 -28 -350 0 -351 0 6 -37 c19 -107 42 -155 97 -197 96 -73 281
-84 445 -26 40 14 60 17 69 9 14 -12 54 -123 54 -152 0 -44 -175 -87 -354 -87
-129 0 -236 23 -319 67 -112 60 -200 180 -232 315 -19 81 -19 253 0 342 39
183 153 319 320 379 72 26 267 17 360 -17z m3861 15 c16 -4 30 -14 32 -22 1
-9 -10 -51 -26 -95 l-30 -79 -88 0 c-102 0 -155 -21 -198 -78 -57 -74 -60 -94
-64 -459 l-4 -338 -114 0 -114 0 2 538 3 537 99 3 c111 3 126 -3 126 -54 l0
-34 41 29 c35 26 88 48 154 65 25 6 141 -2 181 -13z"/>
<path d="M13454 6910 c-76 -18 -138 -83 -165 -172 -31 -102 -27 -287 7 -391
47 -143 200 -204 340 -137 143 70 191 388 89 589 -49 98 -151 140 -271 111z"/>
<path d="M16208 6920 c-79 -24 -134 -85 -162 -180 -9 -30 -16 -55 -16 -57 0
-2 106 -3 235 -3 l235 0 0 33 c0 46 -41 127 -83 164 -54 48 -137 65 -209 43z"/>
<path d="M9068 6506 c-98 -35 -140 -105 -119 -197 25 -109 145 -149 356 -118
l75 11 0 153 0 152 -37 7 c-67 11 -236 6 -275 -8z"/>
<path d="M10666 6915 c-72 -25 -134 -104 -155 -194 l-9 -41 238 0 237 0 -8 45
c-29 156 -163 240 -303 190z"/>
</g>
</svg>
